<svg xmlns="http://www.w3.org/2000/svg" width="38.449" height="41.015" viewBox="0 0 38.449 41.015"><defs><style>.a{fill:#fff;}</style></defs><g transform="translate(2.586 0)"><g transform="translate(0 0)"><path class="a" d="M53.385.656A5.208,5.208,0,0,0,48.3.669L66.988,17.907l6.277-6.277Z" transform="translate(-48.302 0)"/></g></g><g transform="translate(0 2.432)"><path class="a" d="M16.732,30.365a4.78,4.78,0,0,0-.718,2.5V64a4.8,4.8,0,0,0,.669,2.443L35.474,47.654Z" transform="translate(-16.014 -30.365)"/></g><g transform="translate(23.157 12.919)"><path class="a" d="M317.818,164.581l-5.988-3.3L305.1,168l8.246,7.605,4.473-2.468a4.844,4.844,0,0,0,0-8.559Z" transform="translate(-305.102 -161.277)"/></g><g transform="translate(2.502 21.459)"><path class="a" d="M66.089,267.9,47.246,286.744a5.2,5.2,0,0,0,5.168.049L73.783,275Z" transform="translate(-47.246 -267.901)"/></g></svg>