<svg xmlns="http://www.w3.org/2000/svg" xmlns:xlink="http://www.w3.org/1999/xlink" width="90" height="91" viewBox="0 0 90 91"><defs><style>.a{fill:#fff;}.b{fill:#522d94;}.c{filter:url(#a);}</style><filter id="a" x="0" y="0" width="90" height="91" filterUnits="userSpaceOnUse"><feOffset dy="4" input="SourceAlpha"/><feGaussianBlur stdDeviation="4" result="b"/><feFlood flood-opacity="0.102"/><feComposite operator="in" in2="b"/><feComposite in="SourceGraphic"/></filter></defs><g transform="translate(11.619 8.06)"><g class="c" transform="matrix(1, 0, 0, 1, -11.62, -8.06)"><ellipse class="a" cx="33" cy="33.5" rx="33" ry="33.5" transform="translate(12 8)"/></g><path class="b" d="M20.361,29H8.639A8.649,8.649,0,0,1,0,20.361V8.639A8.649,8.649,0,0,1,8.639,0H20.361A8.649,8.649,0,0,1,29,8.639V20.361A8.649,8.649,0,0,1,20.361,29ZM8.639,2.917A5.728,5.728,0,0,0,2.917,8.639V20.361a5.728,5.728,0,0,0,5.722,5.721H20.361a5.728,5.728,0,0,0,5.721-5.721V8.639a5.728,5.728,0,0,0-5.721-5.722ZM14.5,22A7.5,7.5,0,1,1,22,14.5,7.509,7.509,0,0,1,14.5,22Zm0-12.083A4.583,4.583,0,1,0,19.083,14.5,4.588,4.588,0,0,0,14.5,9.917Zm7.514-1.064a1.8,1.8,0,1,1,1.8-1.8A1.8,1.8,0,0,1,22.014,8.853Z" transform="translate(19.381 18.94)"/></g></svg>