<svg xmlns="http://www.w3.org/2000/svg" xmlns:xlink="http://www.w3.org/1999/xlink" width="223.903" height="55.951" viewBox="0 0 223.903 55.951"><defs><style>.a{fill:none;}.b{fill:#fff;}.c{fill:#522d94;}.d{opacity:0.35;}.e{clip-path:url(#a);}.f{clip-path:url(#b);}.g{fill:#f78930;}.h{clip-path:url(#c);}</style><clipPath id="a"><rect class="a" width="13.462" height="4.785"/></clipPath><clipPath id="b"><rect class="a" width="9.717" height="6.727"/></clipPath><clipPath id="c"><rect class="a" width="9.318" height="6.749"/></clipPath></defs><g transform="translate(-162.088 -370.109)"><g transform="translate(230.148 389.76)"><path class="b" d="M40.834,339.5V357.66a2.753,2.753,0,0,1-.454,1.632,2.447,2.447,0,0,1-1.336.913,2.287,2.287,0,0,1-.617.1,2.346,2.346,0,0,1-2.162-1.606,2.6,2.6,0,0,1-.122-.811V346.336q-3.712,4.971-4.691,6.174a2.412,2.412,0,0,1-1.591.663,2.32,2.32,0,0,1-1.407-.51,5.286,5.286,0,0,1-1.285-1.5l-3.487-4.588v11.288a2.141,2.141,0,0,1-.433,1.336,2.784,2.784,0,0,1-1.239.908,1.859,1.859,0,0,1-.709.148h-.056a2.135,2.135,0,0,1-1.377-.449,3.177,3.177,0,0,1-.918-1.366l-.046-.214v-.194a.709.709,0,0,1,0-.163V339.285a2.249,2.249,0,0,1,.444-1.417,2.973,2.973,0,0,1,1.315-.913.83.83,0,0,1,.24-.031,3.2,3.2,0,0,1,.347,0q1.53.031,2.687,2l5.894,7.831q6.23-8.351,6.99-9.228a.419.419,0,0,1,.178-.148h-.031a2.488,2.488,0,0,1,1.428-.469h.046a2.3,2.3,0,0,1,2.269,1.672v.163l.031.178a3.742,3.742,0,0,1,.061.586" transform="translate(-18.901 -336.845)"/><path class="b" d="M74.18,341.5v4.675h5.68a2.208,2.208,0,0,1,2.039,1.351,2.952,2.952,0,0,1,.168.439v.061h.046v.27a.855.855,0,0,1,0,.194v.061a2.177,2.177,0,0,1-1.249,1.968l-.255.133a.675.675,0,0,1-.214.092l-.056.031h-.087a3.225,3.225,0,0,1-.393.031H74.18v4.736h8.9a2.59,2.59,0,0,1,1.53.428,2.518,2.518,0,0,1,.882,1.331.879.879,0,0,1,.031.224v.031a1.466,1.466,0,0,0,.071.224,2.4,2.4,0,0,1-1.53,2.238,2.587,2.587,0,0,1-1.02.178H71.789a2.039,2.039,0,0,1-1.53-.627,2.473,2.473,0,0,1-.709-1.117.937.937,0,0,1-.031-.24v-.148a1.792,1.792,0,0,1-.031-.255V339.093a2.04,2.04,0,0,1,.444-1.315,2.61,2.61,0,0,1,1.168-.836.81.81,0,0,1,.194-.077h.046a2.871,2.871,0,0,1,.449-.041H83.077a2.351,2.351,0,0,1,2.376,1.53l.061.2a.424.424,0,0,1,.031.163,1.433,1.433,0,0,1,.071.408v.1a2.085,2.085,0,0,1-1.02,1.8,1.6,1.6,0,0,1-.51.316h-.061l-.168.076-.148.056-.54.046Z" transform="translate(-43.697 -336.799)"/><path class="b" d="M108.044,359.814a2.326,2.326,0,0,1-.826-1.02l-.071-.178a.943.943,0,0,1-.087-.255.618.618,0,0,0-.036-.194h0a1.7,1.7,0,0,1-.026-.362V339.186a2.371,2.371,0,0,1,1.667-2.3l.2-.046a2.587,2.587,0,0,1,.433-.041h6.368q8.565,0,11.257,7.9a14.567,14.567,0,0,1,.556,3.712,12.267,12.267,0,0,1-3.426,8.611,11.256,11.256,0,0,1-8.433,3.176h-6.327a2.167,2.167,0,0,1-1.249-.387m8.208-4.272a6.083,6.083,0,0,0,3.712-1.142,7.454,7.454,0,0,0,2.422-3.355,8.3,8.3,0,0,0,.387-2.493V348.3a7.265,7.265,0,0,0-.907-3.686,6.8,6.8,0,0,0-2.682-2.549,7.2,7.2,0,0,0-2.886-.571H111.71v14.056Z" transform="translate(-62.083 -336.791)"/><path class="b" d="M171.007,357.348a1.794,1.794,0,0,1,.092.54,2.293,2.293,0,0,1-1.682,2.2,1.025,1.025,0,0,1-.3.061l-.362.046a2.1,2.1,0,0,1-1.53-.663,5.216,5.216,0,0,1-1.137-1.968l-3.248-6.781h-5.1v6.781a2.432,2.432,0,0,1-1.173,2.3l-.163.082a1.181,1.181,0,0,1-.286.1.955.955,0,0,1-.184.061,1.78,1.78,0,0,1-.581.092h-.061a2.189,2.189,0,0,1-2.106-1.565l-.046-.138a.275.275,0,0,0,.046.138.286.286,0,0,1-.077-.209.061.061,0,0,1,0-.046l-.061-.393A1.123,1.123,0,0,1,153,357.8a.877.877,0,0,1,.025-.224v-5.425a1.973,1.973,0,0,1-.025-.357v-7.76a2.236,2.236,0,0,1,.025-.377V338.53a.74.74,0,0,1,.061-.331,2.264,2.264,0,0,1,.637-1.06,1.489,1.489,0,0,1,.989-.352h9.5a6.659,6.659,0,0,1,4.252,1.361A7.959,7.959,0,0,1,171.012,342a17.664,17.664,0,0,1,.27,1.968,6.873,6.873,0,0,1-3.008,5.771,6.213,6.213,0,0,1-.7.372q3.156,6.6,3.365,7.26m-4.522-13.628a2.258,2.258,0,0,0-1.351-2.2,2.092,2.092,0,0,0-.632-.072h-6.679V346h6.766a1.851,1.851,0,0,0,1.968-1.744Z" transform="translate(-84.631 -336.783)"/><path class="b" d="M199.64,341.5v4.675h5.685a2.218,2.218,0,0,1,2.039,1.351,3.571,3.571,0,0,1,.163.439v.061h.046v.27a.86.86,0,0,1,0,.194v.061a2.177,2.177,0,0,1-1.249,1.968l-.255.133a.7.7,0,0,1-.209.092l-.061.031h-.1a3.209,3.209,0,0,1-.387.031H199.64v4.736h8.9a2.615,2.615,0,0,1,1.56.428,2.513,2.513,0,0,1,.877,1.331.879.879,0,0,1,.031.224v.031a1.041,1.041,0,0,0,.076.224,2.4,2.4,0,0,1-1.53,2.238,2.587,2.587,0,0,1-1.02.178H197.254a2.039,2.039,0,0,1-1.53-.627,2.473,2.473,0,0,1-.709-1.117.939.939,0,0,1-.031-.24v-.148a1.576,1.576,0,0,1,0-.255V339.093a2.075,2.075,0,0,1,.438-1.315,2.61,2.61,0,0,1,1.168-.836.923.923,0,0,1,.194-.077h.046a2.937,2.937,0,0,1,.454-.041h11.283a2.351,2.351,0,0,1,2.376,1.53l.061.2a.424.424,0,0,1,.031.163,1.3,1.3,0,0,1,.076.408v.1a2.09,2.09,0,0,1-1.02,1.8,1.6,1.6,0,0,1-.51.316h-.061l-.163.076-.153.056-.54.046Z" transform="translate(-105.208 -336.799)"/><path class="b" d="M240.4,360.233h-.755l-.749-.107a11.13,11.13,0,0,1-4.966-1.993,11.385,11.385,0,0,1-3.441-3.967,12.618,12.618,0,0,1-1.438-5.221,2.7,2.7,0,0,1,0-.347,3.189,3.189,0,0,1,0-.347,12.69,12.69,0,0,1,1.428-5.231,11.216,11.216,0,0,1,8.417-5.935l.693-.122h.046a.218.218,0,0,1,.1,0h1.127a9.721,9.721,0,0,1,3.967.709,12.139,12.139,0,0,1,3.89,2.407,11.093,11.093,0,0,1,2.621,3.666v.046a1.779,1.779,0,0,1,.061.54,2.549,2.549,0,0,1-.28,1.178,2.177,2.177,0,0,1-.78.857,2.04,2.04,0,0,1-1.152.326,2.763,2.763,0,0,1-1.05-.214l-.122-.041-.071-.031a1.563,1.563,0,0,0-.316-.214,1.723,1.723,0,0,1-.377-.4,12.1,12.1,0,0,0-.9-1.412l-.061-.046a1.234,1.234,0,0,1-.133-.184l-.168-.178-.087-.107-.331-.342a7.274,7.274,0,0,0-2.493-1.53,9.006,9.006,0,0,0-2.513-.393,6.268,6.268,0,0,0-1.759.24l-.642.184a7.447,7.447,0,0,0-2.376,1.575l-.046.061a7.408,7.408,0,0,0-1.881,3.324,12.384,12.384,0,0,0-.178,1.637,7.369,7.369,0,0,0,.051.76c.036.285.082.566.127.846a7.469,7.469,0,0,0,1.866,3.339l.046.046a7.014,7.014,0,0,0,2.208,1.53,6.565,6.565,0,0,0,2.6.51,8.988,8.988,0,0,0,2.5-.393,7.32,7.32,0,0,0,2.493-1.529l.331-.362a1.153,1.153,0,0,0,.24-.255.815.815,0,0,1,.178-.194h0a16.168,16.168,0,0,0,.948-1.443.984.984,0,0,1,.331-.377l.285-.194a.609.609,0,0,1,.224-.148,3.249,3.249,0,0,1,1.02-.2,2.1,2.1,0,0,1,1.168.326,2.238,2.238,0,0,1,.8.872,2.59,2.59,0,0,1,.286,1.208,1.714,1.714,0,0,1-.061.51v.046a12.1,12.1,0,0,1-1.57,2.549,9.722,9.722,0,0,1-2.111,1.968,10,10,0,0,1-2.5,1.407,13.38,13.38,0,0,1-2.855.775c-.551.051-1.02.071-1.412.071Z" transform="translate(-121.907 -336.868)"/><path class="b" d="M302.14,348.887a14.645,14.645,0,0,1-.959,4.344v.02a13.648,13.648,0,0,1-1.6,2.666,9.175,9.175,0,0,1-2.157,2.039,10.435,10.435,0,0,1-3.258,1.688,12.446,12.446,0,0,1-3.7.556,12.237,12.237,0,0,1-2.865-.311,12.483,12.483,0,0,1-2.743-1.061l-.178-.1a11.406,11.406,0,0,1-1.157-.77,9.493,9.493,0,0,1-2.09-1.942,12.188,12.188,0,0,1-1.56-2.549,1.8,1.8,0,0,1-.092-.316,13.58,13.58,0,0,1-.964-4.267,2.7,2.7,0,0,1,0-.347,3.143,3.143,0,0,1,0-.347,14.034,14.034,0,0,1,.964-4.3v-.061a10.706,10.706,0,0,1,3.742-4.7,9.688,9.688,0,0,1,2.473-1.407,13.968,13.968,0,0,1,2.876-.79c.51-.041,1.02-.061,1.6-.061a13.265,13.265,0,0,1,1.606.061,10.987,10.987,0,0,1,2.345.6,6.858,6.858,0,0,1,1.295.556,7.14,7.14,0,0,1,1.713,1.02A11.218,11.218,0,0,1,301.1,343.6a.478.478,0,0,0,.031.107.132.132,0,0,1,0,.041l.031.092v.046a13,13,0,0,1,.959,4.283Zm-4.67-.347a8.656,8.656,0,0,0-.153-1.637,7.285,7.285,0,0,0-1.866-3.309l-.056-.061a8.117,8.117,0,0,0-1.473-1.142c-.51-.24-.841-.4-1.055-.479a9.742,9.742,0,0,0-2.493-.393,9.5,9.5,0,0,0-2.284.393,6.233,6.233,0,0,0-1.305.648,9.317,9.317,0,0,0-1.219.974l-.03.031a7.35,7.35,0,0,0-1.876,3.324,11.754,11.754,0,0,0-.184,1.637,6.177,6.177,0,0,0,.051.76c.036.285.082.566.133.846a7.413,7.413,0,0,0,1.861,3.339l.046.046a7.741,7.741,0,0,0,1.489,1.157l.194.1.857.377a11.079,11.079,0,0,0,2.269.408,9.966,9.966,0,0,0,2.508-.408,6.575,6.575,0,0,0,.77-.347l.285-.133a6.982,6.982,0,0,0,1.4-1.1,1.086,1.086,0,0,1,.163-.133,7.352,7.352,0,0,0,1.835-3.309,8.478,8.478,0,0,0,.153-1.606m-1.942,4.884h-.031Z" transform="translate(-146.298 -336.825)"/></g><g transform="translate(162.088 370.109)"><rect class="b" width="55.951" height="55.951" rx="10"/><g transform="translate(5.528 5.633)"><g transform="translate(0 0)"><g transform="translate(0 0)"><path class="c" d="M69.387,2.859a1.019,1.019,0,0,0-.338-.06H53.407a1.26,1.26,0,0,1-.96-.767A3.229,3.229,0,0,0,49.436,0H37.847A3.247,3.247,0,0,0,34.61,3.242v5.33a1,1,0,0,0,1.991,0V5.666a.964.964,0,0,1,.957-.876H53.307a2.888,2.888,0,0,0,.356.016h15.22a.964.964,0,0,1,.962.962V11.21a1,1,0,1,0,1.991,0V5.768a2.959,2.959,0,0,0-2.449-2.909" transform="translate(-30.016 0)"/><path class="c" d="M33.235,58.094a.542.542,0,0,1,.734-.222.563.563,0,0,1,.265.324L35.4,62.155l2.239-7.9a.543.543,0,0,1,1.054.031l2.148,9.689,1.832-6.29a.543.543,0,0,1,.673-.369.531.531,0,0,1,.372.38l1.349,5.02,1.054-1.951a.544.544,0,0,1,.737-.219.531.531,0,0,1,.223.228l.693,1.339.531-.807a.553.553,0,0,1,.455-.248H59.512V48.576h0v-2.5a1.726,1.726,0,0,0-1.726-1.726H45.944A1.726,1.726,0,0,0,44.32,45.5l-.5,1.382H20.695A1.7,1.7,0,0,0,19,48.576V61.16l12.629-.076Z" transform="translate(-16.478 -38.463)"/><path class="c" d="M52.338,142.357H49.05l-.872,1.347a.543.543,0,0,1-.751.161.551.551,0,0,1-.186-.206l-.652-1.26-1.212,2.246a.543.543,0,0,1-1-.118l-1.2-4.464L41.3,146.527a.543.543,0,0,1-1.051-.035l-2.142-9.663-2.162,7.629a.546.546,0,0,1-.672.376.552.552,0,0,1-.374-.369l-1.327-4.489-1.126,2.093-.016.031a.491.491,0,0,1-.462.256L19,142.265v15.928a2.243,2.243,0,0,0,2.244,2.244H57.266a2.244,2.244,0,0,0,2.244-2.244V142.357H52.343Z" transform="translate(-16.478 -118.668)"/><line class="b" y1="0.896" transform="translate(2.518 22.701)"/><line class="b" y2="1.086" transform="translate(43.033 22.603)"/><path class="b" d="M53.425,123.276H48.754a.553.553,0,0,0-.455.248l-.531.808-.693-1.341a.531.531,0,0,0-.223-.228.544.544,0,0,0-.737.219l-1.054,1.951L43.72,119.92a.543.543,0,0,0-1.045-.011l-1.832,6.29L38.7,116.51a.543.543,0,0,0-1.054-.031l-2.239,7.9-1.169-3.958a.553.553,0,0,0-.265-.323.539.539,0,0,0-.734.222l-1.61,2.993L19,123.371v.895l12.967.092a.488.488,0,0,0,.462-.256l.016-.031,1.124-2.093,1.327,4.489a.558.558,0,0,0,.374.37.548.548,0,0,0,.672-.376L38.1,118.83l2.133,9.668a.543.543,0,0,0,1.051.035l1.881-6.464,1.2,4.464a.543.543,0,0,0,1,.118l1.212-2.246.652,1.26a.551.551,0,0,0,.186.206.543.543,0,0,0,.751-.161l.872-1.347H59.506v-1.086Z" transform="translate(-16.478 -100.674)"/><path class="c" d="M14.772,251.793l-7.41-1.033a5.287,5.287,0,0,0-2.138,1.8c-.392.763.143,1.3,1.212,1.52a5.852,5.852,0,0,0,.99.106,13.279,13.279,0,0,0,7.368-2.359l-.021-.032" transform="translate(-4.418 -217.476)"/><g class="d" transform="translate(2.465 34.956)"><g class="e"><path d="M32.042,263.36a5.324,5.324,0,0,1-4.5.52c-5.907,5.284-8.428,4.222-8.959,4.089a13.693,13.693,0,0,0,8.928-4.428,5.21,5.21,0,0,0,4.531-.182Z" transform="translate(-18.579 -263.36)"/></g></g><rect class="c" width="0.192" height="16.362" transform="translate(42.835 13.895)"/><g class="d" transform="translate(0.69 30.127)"><g class="f"><path d="M14.919,231.184c-3.3,2.6-6.217,2.863-8.387,2.288-1.757-.465-2.079-1.61.929-3.3-1.047.819-1.622,1.686-1.434,2.27.531,1.634,7.5-.24,8.417-1.408-.759-.958-.362-3.237-.02-4.034a4.786,4.786,0,0,0,.5,4.186" transform="translate(-5.202 -226.997)"/></g></g><path class="c" d="M330.815,99.42l-.065.1.065-.1" transform="translate(-286.849 -86.224)"/><path class="g" d="M331.265,99.13a.372.372,0,0,0-.025.038l.025-.038" transform="translate(-287.274 -85.972)"/><path class="g" d="M251.948,63.334h0c-2.945.117-5.766,2.677-7.336,4.733a10.33,10.33,0,0,0-1.076,1.672,1.879,1.879,0,0,0-.5-.066,1.9,1.9,0,0,0-1.906,1.9,1.964,1.964,0,0,0,.088.576,1.9,1.9,0,1,0,3.451-1.542c.042-.05.085-.1.133-.147,2.359-2.728,5.49-4.247,7.356-4.38v-.033h0c1.257-.017,1.826.653.958,2.029,1.668-2.542.52-4.931-1.168-4.745" transform="translate(-209.124 -54.918)"/><path class="c" d="M276.146,83.812h0v.033c-1.866.133-5,1.656-7.356,4.38l7.129-.965a9.13,9.13,0,0,0,1.1-1.286l.065-.1a.393.393,0,0,1,.025-.038c.868-1.376.3-2.047-.958-2.029" transform="translate(-233.113 -72.684)"/><g class="d" transform="translate(35.09 11.127)"><g class="h"><path d="M272.1,87.231c.158-.186,1.716-2.047.92-2.461-2.057-1.05-7.517,2.859-8.089,3.533a1.966,1.966,0,0,1-.563,2.256,1.9,1.9,0,0,0,.265-2.28c2.367-2.815,5.557-4.322,7.453-4.458,1.806-.133,2.432.985.013,3.407" transform="translate(-264.37 -83.813)"/></g></g><path class="g" d="M18.659,199.647l-.174-.153a1.151,1.151,0,0,0-.044-.929h0a.539.539,0,0,0-.147-.175c-.429-.372-1.221-.157-1.772.478a1.874,1.874,0,0,0-.133.175,1.259,1.259,0,0,0-.085,1.646,1.014,1.014,0,0,0,1.12.036l.175.151a.285.285,0,0,1,.1.219.3.3,0,0,1-.1.232c-2.1,1.97-4.6,2.758-5.722,1.793a1.585,1.585,0,0,1-.4-.531c-.559-1.2-.037-3.379,1.375-5.376a.308.308,0,0,1,.215-.133.3.3,0,0,1,.231.072l.175.151a1.016,1.016,0,0,0,.192,1.106c.429.372,1.221.161,1.772-.473s.648-1.451.219-1.824a1.014,1.014,0,0,0-1.123-.033l-.173-.15a1.918,1.918,0,0,0-2.825.342,11.14,11.14,0,0,0-1.655,3.4h0a4.764,4.764,0,0,0,.467,4.154l.058.008-.037.024h0a11.861,11.861,0,0,1-7.36,2.383l-.009-.019a5.866,5.866,0,0,1-.99-.106c-1.062-.216-1.6-.757-1.212-1.52l-.07.1c-2.389,4.115,1.775,4.38,1.775,4.38a7.612,7.612,0,0,0,1.46-.1,13.868,13.868,0,0,0,7.489-4.23,4.794,4.794,0,0,0,4.17-.173h0a10.845,10.845,0,0,0,3.082-2.089,1.917,1.917,0,0,0-.058-2.844" transform="translate(0.002 -169.517)"/><path class="g" d="M78.088,258.548l-.058-.008.023.032.036-.024" transform="translate(-67.673 -224.224)"/></g></g></g></g></g></svg>