<svg xmlns="http://www.w3.org/2000/svg" width="220.381" height="213.695" viewBox="0 0 220.381 213.695"><defs><style>.a{fill:#fff;}.b{opacity:0.3;}</style></defs><g transform="translate(0 -0.009)"><g transform="translate(0 0.009)"><path class="a" d="M532.544,110.015a1.671,1.671,0,0,1-.732-.169,1.69,1.69,0,0,1-.789-2.254l11.2-23.253a6.285,6.285,0,0,0-2.941-8.386L498.226,56.216a6.283,6.283,0,0,0-8.388,2.93l-18.48,37.886a1.69,1.69,0,1,1-3.038-1.483L486.8,57.672a9.664,9.664,0,0,1,12.9-4.507l41.057,19.746a9.677,9.677,0,0,1,4.519,12.9l-11.2,23.246A1.69,1.69,0,0,1,532.544,110.015Z" transform="translate(-362.644 -40.442)"/><path class="a" d="M477.439,553.957a9.591,9.591,0,0,1-4.174-.956l-20.609-9.916a1.69,1.69,0,1,1,1.465-3.047l20.609,9.916a6.292,6.292,0,0,0,8.388-2.93l9.772-20.249a1.69,1.69,0,1,1,3.047,1.46l-9.772,20.247A9.675,9.675,0,0,1,477.439,553.957Z" transform="translate(-349.901 -407.281)"/><path class="a" d="M504.125,530.564a1.7,1.7,0,0,1-.732-.167l-30.057-14.446A1.69,1.69,0,0,1,474.8,512.9l30.057,14.446a1.69,1.69,0,0,1-.732,3.214Z" transform="translate(-365.921 -397.187)"/><path class="a" d="M608.391,112.018a1.7,1.7,0,0,1-.735-.156L554.45,86.257a1.69,1.69,0,1,1,1.465-3.045L609.126,108.8a1.69,1.69,0,0,1-.735,3.214Z" transform="translate(-428.717 -64.313)"/><path class="a" d="M474.494,555.114a1.671,1.671,0,0,1-.732-.169l-5.686-2.734a1.69,1.69,0,1,1,1.465-3.047l5.688,2.736a1.69,1.69,0,0,1-.735,3.214Z" transform="translate(-361.846 -425.275)"/><path class="a" d="M200.333,337.7a1.688,1.688,0,0,1-1.521-2.423l16.071-33.422,6.452-35.952a19.747,19.747,0,0,1,8.39-15.656l34.143-23.677a9.791,9.791,0,1,1,11.457,15.881l-24.649,18.406a52.075,52.075,0,0,1,9.49,15.591A39.252,39.252,0,0,1,262.7,294.6c-.784,7.462-3.883,14.7-9.213,21.54a1.691,1.691,0,0,1-2.666-2.08c4.917-6.31,7.78-12.945,8.507-19.742a35.738,35.738,0,0,0-2.281-16.551,48.358,48.358,0,0,0-10.078-15.911,1.688,1.688,0,0,1,.162-2.567L273.3,239.739a6.411,6.411,0,1,0-7.5-10.4l-34.138,23.675a16.346,16.346,0,0,0-6.946,13.089,1.8,1.8,0,0,1-.027.271l-6.517,36.311a1.72,1.72,0,0,1-.14.435l-16.172,33.62a1.69,1.69,0,0,1-1.523.958Z" transform="translate(-153.876 -174.077)"/><path class="a" d="M682.834,314.667a9.1,9.1,0,0,1-8.758-6.655h0a9.1,9.1,0,0,1,6.31-11.189l14.942-4.151a9.087,9.087,0,0,1,4.865,17.511l-14.93,4.165A9.143,9.143,0,0,1,682.834,314.667Zm14.948-18.951a5.7,5.7,0,0,0-1.537.212L681.3,300.08a5.713,5.713,0,0,0-3.971,7.027h0a5.713,5.713,0,0,0,7.027,3.971l14.942-4.151a5.711,5.711,0,0,0-1.519-11.21Z" transform="translate(-521.906 -226.457)"/><path class="a" d="M668.105,387.847a9.1,9.1,0,0,1-8.758-6.655h0a9.084,9.084,0,0,1,6.31-11.187l14.953-4.154a9.087,9.087,0,0,1,4.865,17.511l-14.942,4.153A9.051,9.051,0,0,1,668.105,387.847Zm-5.49-7.559a5.715,5.715,0,0,0,7.027,3.971l14.942-4.154a5.707,5.707,0,1,0-3.056-11l-14.942,4.154A5.713,5.713,0,0,0,662.615,380.289Z" transform="translate(-510.495 -283.145)"/><path class="a" d="M630.074,466.927a9.1,9.1,0,0,1-8.76-6.655h0a9.091,9.091,0,0,1,6.324-11.189l14.942-4.151a9.087,9.087,0,1,1,4.866,17.511L632.5,466.6A9.068,9.068,0,0,1,630.074,466.927Zm-5.5-7.561a5.713,5.713,0,0,0,7.027,3.971l14.942-4.151a5.707,5.707,0,0,0-3.056-11l-14.942,4.162a5.711,5.711,0,0,0-3.971,7.025Z" transform="translate(-481.034 -344.403)"/><path class="a" d="M367.692,678.5a1.69,1.69,0,0,1-1.521-2.414l15.16-31.513a1.679,1.679,0,0,1,1.562-.958c15.936.363,23.23-10.592,23.3-10.7a1.69,1.69,0,0,1,2.835,1.839,26.4,26.4,0,0,1-6.409,6.333A32.014,32.014,0,0,1,383.916,647l-14.7,30.539A1.69,1.69,0,0,1,367.692,678.5Z" transform="translate(-283.523 -489.708)"/><path class="a" d="M199.026,257.962a88.686,88.686,0,1,1,0-177.373,1.69,1.69,0,0,1,0,3.38,85.289,85.289,0,1,0,69,35.132,1.69,1.69,0,1,1,2.731-1.99,88.658,88.658,0,0,1-71.731,140.853Z" transform="translate(-85.494 -62.429)"/><g class="b" transform="translate(0 18.072)"><path class="a" d="M5.3,628.08H1.69a1.69,1.69,0,0,1,0-3.38H5.3a1.69,1.69,0,0,1,0,3.38Z" transform="translate(0 -501.989)"/><path class="a" d="M65.747,628.08H61.69a1.69,1.69,0,0,1,0-3.38h4.057a1.69,1.69,0,0,1,0,3.38Z" transform="translate(-46.478 -501.989)"/><path class="a" d="M40.19,655.186a1.69,1.69,0,0,1-1.69-1.69V649.89a1.69,1.69,0,1,1,3.38,0V653.5A1.69,1.69,0,0,1,40.19,655.186Z" transform="translate(-29.823 -520.193)"/><path class="a" d="M40.19,593.637a1.69,1.69,0,0,1-1.69-1.69V587.89a1.69,1.69,0,1,1,3.38,0v4.056A1.69,1.69,0,0,1,40.19,593.637Z" transform="translate(-29.823 -472.166)"/><path class="a" d="M638.3,714.081H634.69a1.69,1.69,0,1,1,0-3.38H638.3a1.69,1.69,0,1,1,0,3.38Z" transform="translate(-490.344 -568.608)"/><path class="a" d="M698.747,714.081H694.69a1.69,1.69,0,0,1,0-3.38h4.057a1.69,1.69,0,0,1,0,3.38Z" transform="translate(-536.823 -568.608)"/><path class="a" d="M673.19,741.186a1.69,1.69,0,0,1-1.69-1.69V735.89a1.69,1.69,0,0,1,3.38,0V739.5A1.69,1.69,0,0,1,673.19,741.186Z" transform="translate(-520.168 -586.812)"/><path class="a" d="M673.19,679.637a1.69,1.69,0,0,1-1.69-1.69V673.89a1.69,1.69,0,1,1,3.38,0v4.057A1.69,1.69,0,0,1,673.19,679.637Z" transform="translate(-520.168 -538.784)"/><path class="a" d="M872.3,122.08H868.69a1.69,1.69,0,1,1,0-3.38H872.3a1.69,1.69,0,1,1,0,3.38Z" transform="translate(-671.609 -110.023)"/><path class="a" d="M932.747,122.08H928.69a1.69,1.69,0,0,1,0-3.38h4.057a1.69,1.69,0,0,1,0,3.38Z" transform="translate(-718.087 -110.023)"/><path class="a" d="M907.19,149.186a1.69,1.69,0,0,1-1.69-1.69V143.89a1.69,1.69,0,0,1,3.381,0V147.5A1.69,1.69,0,0,1,907.19,149.186Z" transform="translate(-701.433 -128.227)"/><path class="a" d="M907.19,87.637a1.69,1.69,0,0,1-1.69-1.69V81.89a1.69,1.69,0,0,1,3.381,0v4.057A1.69,1.69,0,0,1,907.19,87.637Z" transform="translate(-701.433 -80.2)"/><path class="a" d="M115.719,775.027a5.479,5.479,0,1,1,5.479-5.479A5.479,5.479,0,0,1,115.719,775.027Zm0-7.577a2.1,2.1,0,1,0,2.1,2.1A2.1,2.1,0,0,0,115.719,767.451Z" transform="translate(-85.396 -609.95)"/><path class="a" d="M915.668,304.667a5.479,5.479,0,1,1,5.479-5.483A5.479,5.479,0,0,1,915.668,304.667Zm0-7.577a2.1,2.1,0,1,0,2.1,2.1A2.1,2.1,0,0,0,915.668,297.09Z" transform="translate(-705.065 -245.593)"/></g><path class="a" d="M521.265,292.291a1.676,1.676,0,0,1-1.194-.5L511,282.727a1.691,1.691,0,1,1,2.391-2.391l7.888,7.877,28.29-28.3a1.69,1.69,0,1,1,2.389,2.389l-29.5,29.5A1.676,1.676,0,0,1,521.265,292.291Z" transform="translate(-395.453 -200.921)"/><g class="b" transform="translate(6.688 0)"><path class="a" d="M736.965,69.809a1.684,1.684,0,0,1-.994-.325,104.265,104.265,0,0,0-10.141-6.517,1.69,1.69,0,1,1,1.659-2.946,107.829,107.829,0,0,1,10.466,6.729,1.69,1.69,0,0,1-1,3.058Z" transform="translate(-568.274 -46.328)"/><path class="a" d="M359.2,8.12a1.69,1.69,0,0,1-.5-3.3,107.584,107.584,0,0,1,56.841-1.853,1.691,1.691,0,0,1-.791,3.288A104.193,104.193,0,0,0,359.7,8.039,1.69,1.69,0,0,1,359.2,8.12Z" transform="translate(-283.629 -0.009)"/><path class="a" d="M177.643,115.088a1.69,1.69,0,0,1-1.163-2.93c1.674-1.578,3.419-3.124,5.183-4.588a1.69,1.69,0,1,1,2.159,2.6c-1.713,1.42-3.4,2.916-5.024,4.446A1.69,1.69,0,0,1,177.643,115.088Z" transform="translate(-142.976 -83.027)"/><path class="a" d="M32.2,305.339a1.69,1.69,0,0,1-1.674-1.478,108.386,108.386,0,0,1,0-27.107,105.7,105.7,0,0,1,12.985-39.119,1.69,1.69,0,0,1,2.941,1.668,102.378,102.378,0,0,0-12.58,37.866,105.038,105.038,0,0,0,0,26.257,1.688,1.688,0,0,1-1.463,1.891A1.738,1.738,0,0,1,32.2,305.339Z" transform="translate(-29.675 -183.418)"/><path class="a" d="M224.866,847.546a1.687,1.687,0,0,1-.843-.225,107.528,107.528,0,0,1-11.836-7.933,1.69,1.69,0,1,1,2.064-2.677,104.271,104.271,0,0,0,11.462,7.68,1.69,1.69,0,0,1-.847,3.155Z" transform="translate(-170.546 -647.875)"/><path class="a" d="M402.8,923.953a107.138,107.138,0,0,1-28.083-3.73,1.69,1.69,0,1,1,.886-3.261,104.341,104.341,0,0,0,49.334,1.239,1.69,1.69,0,1,1,.721,3.3A107.556,107.556,0,0,1,402.8,923.953Z" transform="translate(-295.954 -710.257)"/><path class="a" d="M726.737,860.726a1.69,1.69,0,0,1-.829-3.155c2.526-1.424,5.023-2.975,7.424-4.609a1.69,1.69,0,1,1,1.9,2.795c-2.479,1.688-5.057,3.288-7.662,4.76A1.7,1.7,0,0,1,726.737,860.726Z" transform="translate(-568.346 -660.51)"/><path class="a" d="M844.183,625.888a1.688,1.688,0,0,1-1.253-2.824,103.553,103.553,0,0,0,23.79-44.929,1.69,1.69,0,1,1,3.286.8,106.961,106.961,0,0,1-24.576,46.4A1.683,1.683,0,0,1,844.183,625.888Z" transform="translate(-659.311 -446.845)"/><path class="a" d="M959.785,410.984a1.69,1.69,0,0,1-1.69-1.69c0-3.112-.14-6.254-.417-9.337-.225-2.522-.547-5.066-.955-7.559a1.69,1.69,0,1,1,3.336-.548c.424,2.574.755,5.2.987,7.8.286,3.182.43,6.425.43,9.639A1.69,1.69,0,0,1,959.785,410.984Z" transform="translate(-747.781 -302.446)"/></g></g></g></svg>