<svg xmlns="http://www.w3.org/2000/svg" width="162.615" height="158.847" viewBox="0 0 162.615 158.847"><defs><style>.a{opacity:0.3;}.b{fill:#522d94;}</style></defs><g class="a" transform="translate(0 13.432)"><path class="b" d="M3.937,627.213H1.256a1.256,1.256,0,0,1,0-2.513h2.68a1.256,1.256,0,0,1,0,2.513Z" transform="translate(0 -533.484)"/><path class="b" d="M64.272,627.213H61.256a1.256,1.256,0,0,1,0-2.513h3.015a1.256,1.256,0,0,1,0,2.513Z" transform="translate(-49.949 -533.484)"/><path class="b" d="M39.756,653.393a1.256,1.256,0,0,1-1.256-1.256v-2.68a1.256,1.256,0,1,1,2.513,0v2.68A1.256,1.256,0,0,1,39.756,653.393Z" transform="translate(-32.05 -553.047)"/><path class="b" d="M39.756,591.728a1.256,1.256,0,0,1-1.256-1.256v-3.015a1.256,1.256,0,0,1,2.513,0v3.015A1.256,1.256,0,0,1,39.756,591.728Z" transform="translate(-32.05 -501.433)"/><path class="b" d="M705.937,750.213h-2.68a1.256,1.256,0,0,1,0-2.513h2.68a1.256,1.256,0,0,1,0,2.513Z" transform="translate(-584.399 -635.879)"/><path class="b" d="M705.937,750.213h-2.68a1.256,1.256,0,0,1,0-2.513h2.68a1.256,1.256,0,0,1,0,2.513Z" transform="translate(-664 -721.062)"/><path class="b" d="M766.272,750.213h-3.015a1.256,1.256,0,0,1,0-2.513h3.015a1.256,1.256,0,0,1,0,2.513Z" transform="translate(-634.348 -635.879)"/><path class="b" d="M766.272,750.213h-3.015a1.256,1.256,0,0,1,0-2.513h3.015a1.256,1.256,0,0,1,0,2.513Z" transform="translate(-713.949 -721.062)"/><path class="b" d="M741.756,776.393a1.256,1.256,0,0,1-1.256-1.256v-2.68a1.256,1.256,0,0,1,2.513,0v2.68A1.256,1.256,0,0,1,741.756,776.393Z" transform="translate(-616.449 -655.442)"/><path class="b" d="M741.756,776.393a1.256,1.256,0,0,1-1.256-1.256v-2.68a1.256,1.256,0,0,1,2.513,0v2.68A1.256,1.256,0,0,1,741.756,776.393Z" transform="translate(-696.051 -740.625)"/><path class="b" d="M741.756,714.728a1.256,1.256,0,0,1-1.256-1.256v-3.015a1.256,1.256,0,1,1,2.513,0v3.015a1.256,1.256,0,0,1-1.256,1.256Z" transform="translate(-616.449 -603.828)"/><path class="b" d="M741.756,714.728a1.256,1.256,0,0,1-1.256-1.256v-3.015a1.256,1.256,0,1,1,2.513,0v3.015a1.256,1.256,0,0,1-1.256,1.256Z" transform="translate(-696.051 -689.012)"/><path class="b" d="M870.937,121.213h-2.68a1.256,1.256,0,0,1,0-2.513h2.68a1.256,1.256,0,0,1,0,2.513Z" transform="translate(-721.758 -112.25)"/><path class="b" d="M931.272,121.213h-3.015a1.256,1.256,0,0,1,0-2.513h3.015a1.256,1.256,0,1,1,0,2.513Z" transform="translate(-771.706 -112.25)"/><path class="b" d="M906.756,147.393a1.256,1.256,0,0,1-1.256-1.256v-2.68a1.256,1.256,0,1,1,2.513,0v2.68a1.256,1.256,0,0,1-1.256,1.256Z" transform="translate(-753.808 -131.814)"/><path class="b" d="M906.756,85.728a1.256,1.256,0,0,1-1.256-1.256V81.456a1.256,1.256,0,1,1,2.513,0v3.015A1.256,1.256,0,0,1,906.756,85.728Z" transform="translate(-753.808 -80.2)"/><path class="b" d="M114.312,772.215a4.072,4.072,0,1,1,4.072-4.073A4.073,4.073,0,0,1,114.312,772.215Zm0-5.632a1.56,1.56,0,1,0,1.56,1.56A1.56,1.56,0,0,0,114.312,766.583Z" transform="translate(-91.772 -649.506)"/><path class="b" d="M914.262,301.855a4.072,4.072,0,1,1,4.073-4.076A4.072,4.072,0,0,1,914.262,301.855Zm0-5.632a1.56,1.56,0,1,0,1.56,1.56A1.56,1.56,0,0,0,914.262,296.223Z" transform="translate(-757.712 -257.942)"/></g><g class="a" transform="translate(3.767)"><path class="b" d="M726.7,67.231a1.252,1.252,0,0,1-.739-.241,77.5,77.5,0,0,0-7.538-4.845,1.258,1.258,0,1,1,1.241-2.19,80.169,80.169,0,0,1,7.78,5,1.256,1.256,0,0,1-.744,2.273Z" transform="translate(-601.304 -49.778)"/><path class="b" d="M351.586,6.048a1.256,1.256,0,0,1-.372-2.456,79.972,79.972,0,0,1,42.253-1.374,1.257,1.257,0,1,1-.586,2.444A77.458,77.458,0,0,0,351.96,5.991a1.256,1.256,0,0,1-.374.057Z" transform="translate(-295.41 -0.02)"/><path class="b" d="M170.015,113.058a1.256,1.256,0,0,1-.864-2.178c1.245-1.173,2.541-2.322,3.853-3.411a1.256,1.256,0,1,1,1.6,1.933c-1.273,1.055-2.53,2.168-3.734,3.305A1.257,1.257,0,0,1,170.015,113.058Z" transform="translate(-144.246 -89.228)"/><path class="b" d="M24.362,287.746a1.256,1.256,0,0,1-1.245-1.1,80.568,80.568,0,0,1,0-20.15,78.6,78.6,0,0,1,9.653-29.079,1.257,1.257,0,0,1,2.186,1.243,76.1,76.1,0,0,0-9.351,28.144,78.079,78.079,0,0,0,0,19.518,1.255,1.255,0,0,1-1.087,1.405,1.29,1.29,0,0,1-.156.017Z" transform="translate(-22.485 -197.12)"/><path class="b" d="M214.253,844.675a1.251,1.251,0,0,1-.627-.168,79.932,79.932,0,0,1-8.8-5.9,1.257,1.257,0,1,1,1.534-1.99,77.5,77.5,0,0,0,8.52,5.709,1.256,1.256,0,0,1-.63,2.345Z" transform="translate(-173.874 -696.253)"/><path class="b" d="M388.094,922.14a79.647,79.647,0,0,1-20.87-2.772,1.256,1.256,0,1,1,.658-2.424,77.572,77.572,0,0,0,36.669.921,1.256,1.256,0,0,1,.533,2.454A79.959,79.959,0,0,1,388.094,922.14Z" transform="translate(-308.672 -763.293)"/><path class="b" d="M719.117,858.658a1.256,1.256,0,0,1-.616-2.345c1.878-1.059,3.736-2.211,5.518-3.426a1.256,1.256,0,0,1,1.414,2.077c-1.843,1.255-3.759,2.444-5.7,3.538A1.26,1.26,0,0,1,719.117,858.658Z" transform="translate(-601.378 -709.831)"/><path class="b" d="M836.528,613.3a1.255,1.255,0,0,1-.931-2.1,76.974,76.974,0,0,0,17.689-33.4,1.257,1.257,0,0,1,2.443.591,79.509,79.509,0,0,1-18.268,34.491A1.251,1.251,0,0,1,836.528,613.3Z" transform="translate(-699.11 -480.212)"/><path class="b" d="M951.8,405.71a1.256,1.256,0,0,1-1.256-1.256c0-2.315-.1-4.65-.31-6.94-.167-1.878-.407-3.768-.71-5.619a1.256,1.256,0,1,1,2.479-.407c.313,1.911.561,3.863.734,5.8.213,2.365.32,4.776.32,7.165A1.256,1.256,0,0,1,951.8,405.71Z" transform="translate(-794.212 -325.031)"/></g><g transform="translate(42.896 31.86)"><path class="b" d="M393.87,525.711H368.322a43.609,43.609,0,0,1-7.5-.629,89.513,89.513,0,0,0-11.926-.947,1.142,1.142,0,0,1,.011-2.283h.011a89.657,89.657,0,0,1,12.3.982,41.341,41.341,0,0,0,7.106.6H393.87a6.813,6.813,0,0,0,6.806-6.806v-29.1a6.806,6.806,0,0,0-6.807-6.806H376.044a1.142,1.142,0,0,1-.749-2c.072-.062,7.183-6.328,8.465-14.281a77.421,77.421,0,0,0,.877-8.427A5.363,5.363,0,0,0,374,454.8c-1.026,5.777-3.187,13.328-7.661,16.5-1.633,1.157-2.958,1.921-4.022,2.536-2.021,1.166-2.615,1.551-2.863,2.668-1.594,7.227-5.384,11.964-10.672,13.337a1.142,1.142,0,1,1-.574-2.209c3.124-.811,7.223-3.486,9.017-11.62.475-2.149,1.857-2.947,3.95-4.154a45.044,45.044,0,0,0,3.842-2.42c3-2.131,5.39-7.468,6.734-15.039a7.646,7.646,0,0,1,15.167,1.725,79.735,79.735,0,0,1-.9,8.677c-.97,6.022-4.795,11.007-7.206,13.637H393.87a9.092,9.092,0,0,1,9.089,9.089v29.092A9.1,9.1,0,0,1,393.87,525.711Z" transform="translate(-326.527 -448.07)"/><path class="b" d="M256.43,730.868a3.793,3.793,0,0,1-3.667-3.845l-.435-35.915a3.787,3.787,0,0,1,3.606-3.946L264.95,687a3.79,3.79,0,0,1,3.719,3.847l.437,35.91a4.008,4.008,0,0,1-1,2.737,3.522,3.522,0,0,1-2.608,1.218l-9.014.161h-.053Zm.032-1.142ZM265,689.281h-.015l-9.016.161a1.517,1.517,0,0,0-1.361,1.632l.437,35.911a1.514,1.514,0,0,0,1.384,1.592h.015l9.017-.16a1.28,1.28,0,0,0,.938-.449,1.736,1.736,0,0,0,.422-1.184l-.437-35.905A1.519,1.519,0,0,0,265,689.281Z" transform="translate(-245.998 -650.628)"/><path class="b" d="M218.133,719.783h-6.241a1.142,1.142,0,0,1,0-2.283h6.241a1.142,1.142,0,1,1,0,2.283Z" transform="translate(-210.75 -676.488)"/><path class="b" d="M218.133,935.783h-6.241a1.142,1.142,0,0,1,0-2.283h6.241a1.142,1.142,0,1,1,0,2.283Z" transform="translate(-210.75 -859.608)"/><path class="b" d="M446.039,683.641a1.142,1.142,0,0,1-.437-2.2l2.245-.932a15.928,15.928,0,0,0,9.852-14.752v-17.12a1.142,1.142,0,0,1,2.283,0v17.12a18.2,18.2,0,0,1-11.264,16.86l-2.245.932A1.145,1.145,0,0,1,446.039,683.641Z" transform="translate(-409.256 -617.143)"/><path class="b" d="M561.678,836.187a1.162,1.162,0,0,1-.277-.035h-.03a10.243,10.243,0,0,1-7.471-9.836V815.432a1.142,1.142,0,1,1,2.283,0v10.876a7.952,7.952,0,0,0,5.8,7.635,1.142,1.142,0,0,1-.3,2.244Z" transform="translate(-501.666 -758.544)"/></g></svg>