<svg xmlns="http://www.w3.org/2000/svg" width="162.614" height="158.847" viewBox="0 0 162.614 158.847"><defs><style>.a{fill:#522d94;}.b{opacity:0.3;}</style></defs><g transform="translate(0 -0.02)"><g transform="translate(0 0.02)"><path class="a" d="M217.791,231.176a1.256,1.256,0,0,1-.645-.178,110.477,110.477,0,0,1-50.934-66.27c-6.009-21.3-4.471-37.835-4.4-38.53a1.255,1.255,0,0,1,1.034-1.114c23.354-4.086,54-22.168,54.306-22.351a1.255,1.255,0,0,1,1.283,0c.307.183,30.881,18.26,54.234,22.354a1.256,1.256,0,0,1,1.037,1.143c.052.69,1.208,17.128-4.987,38.379a117.953,117.953,0,0,1-16.164,34.24,114.12,114.12,0,0,1-34.1,32.138,1.255,1.255,0,0,1-.662.189ZM164.242,127.389a116.382,116.382,0,0,0,4.416,36.754,107.865,107.865,0,0,0,49.116,64.3,111.526,111.526,0,0,0,32.667-30.977,115.44,115.44,0,0,0,15.826-33.471,120.994,120.994,0,0,0,4.969-36.615c-12.229-2.32-26.055-8.178-35.615-12.747-8.867-4.238-15.767-8.165-17.841-9.368-2.077,1.2-8.993,5.13-17.875,9.368C190.334,119.216,176.476,125.079,164.242,127.389Z" transform="translate(-134.515 -85.38)"/><path class="a" d="M332.613,343.2a1.253,1.253,0,0,1-.818-.3l-17.228-14.789a1.256,1.256,0,0,1-.152-1.749l7.036-8.579a1.255,1.255,0,0,1,1.8-.151l8.917,7.77,41.75-42.348a1.226,1.226,0,0,1,.886-.357h0a1.245,1.245,0,0,1,.885.345l7.539,7.46a1.25,1.25,0,0,1,.012,1.769L333.51,342.831a1.248,1.248,0,0,1-.9.374Zm-15.476-16.2,15.4,13.224L380.572,291.4l-5.753-5.7-41.695,42.306a1.258,1.258,0,0,1-1.72.065l-8.832-7.694Z" transform="translate(-261.507 -235.344)"/><path class="a" d="M253.992,237.09a1.258,1.258,0,0,1-1.159-.767c-5.548-13.129-5.567-29.4-5.563-30.089a1.256,1.256,0,0,1,.975-1.221c23.018-5.264,39.889-19.141,40.056-19.279a1.256,1.256,0,0,1,2.061.965v32.627a1.256,1.256,0,0,1-2.513,0V189.26a105.774,105.774,0,0,1-9.557,6.27,107.622,107.622,0,0,1-28.494,11.7c.1,3.727.764,17.263,5.351,28.115a1.256,1.256,0,0,1-1.156,1.746Z" transform="translate(-205.846 -154.38)"/><path class="a" d="M403.671,654.662a1.249,1.249,0,0,1-.781-.273c-13.878-11.01-17.607-16.018-17.757-16.226a1.256,1.256,0,1,1,2.027-1.484c.048.065,3.414,4.523,15.256,14.111V629.457a1.256,1.256,0,1,1,2.513,0v23.956a1.258,1.258,0,0,1-1.256,1.256Z" transform="translate(-320.412 -522.966)"/><path class="a" d="M490.941,457.171a1.256,1.256,0,0,1-.732-2.278,85.813,85.813,0,0,0,18.83-18.881,121.671,121.671,0,0,0,12.189-20.657,129.5,129.5,0,0,0,8.473-23.408,1.257,1.257,0,0,1,2.451.556,129.677,129.677,0,0,1-8.649,23.919,123.834,123.834,0,0,1-12.444,21.086,88.445,88.445,0,0,1-19.387,19.433A1.258,1.258,0,0,1,490.941,457.171Z" transform="translate(-407.65 -325.475)"/><path class="a" d="M509.978,198.882a1.271,1.271,0,0,1-.4-.065c-14.995-5-19.49-11.144-19.674-11.4a1.257,1.257,0,1,1,2.045-1.461c.069.094,4.369,5.793,18.427,10.479a1.256,1.256,0,0,1-.4,2.449Z" transform="translate(-407.641 -154.367)"/><g class="b" transform="translate(0 13.432)"><path class="a" d="M3.937,627.213H1.256a1.256,1.256,0,1,1,0-2.513h2.68a1.256,1.256,0,1,1,0,2.513Z" transform="translate(0 -533.484)"/><path class="a" d="M64.272,627.213H61.256a1.256,1.256,0,1,1,0-2.513h3.015a1.256,1.256,0,1,1,0,2.513Z" transform="translate(-49.949 -533.484)"/><path class="a" d="M39.756,653.393a1.256,1.256,0,0,1-1.256-1.256v-2.68a1.256,1.256,0,1,1,2.513,0v2.68A1.256,1.256,0,0,1,39.756,653.393Z" transform="translate(-32.05 -553.047)"/><path class="a" d="M39.756,591.728a1.256,1.256,0,0,1-1.256-1.256v-3.015a1.256,1.256,0,0,1,2.513,0v3.015A1.256,1.256,0,0,1,39.756,591.728Z" transform="translate(-32.05 -501.434)"/><path class="a" d="M705.937,750.213h-2.68a1.256,1.256,0,0,1,0-2.513h2.68a1.256,1.256,0,0,1,0,2.513Z" transform="translate(-584.399 -635.879)"/><path class="a" d="M766.272,750.213h-3.015a1.256,1.256,0,0,1,0-2.513h3.015a1.256,1.256,0,1,1,0,2.513Z" transform="translate(-634.348 -635.879)"/><path class="a" d="M741.757,776.393a1.257,1.257,0,0,1-1.256-1.257v-2.68a1.256,1.256,0,1,1,2.513,0v2.68A1.257,1.257,0,0,1,741.757,776.393Z" transform="translate(-616.45 -655.442)"/><path class="a" d="M741.757,714.728a1.256,1.256,0,0,1-1.256-1.256v-3.015a1.256,1.256,0,1,1,2.513,0v3.015a1.256,1.256,0,0,1-1.256,1.257Z" transform="translate(-616.45 -603.828)"/><path class="a" d="M870.937,121.213h-2.68a1.256,1.256,0,1,1,0-2.513h2.68a1.256,1.256,0,0,1,0,2.513Z" transform="translate(-721.758 -112.25)"/><path class="a" d="M931.272,121.213h-3.015a1.256,1.256,0,1,1,0-2.513h3.015a1.256,1.256,0,1,1,0,2.513Z" transform="translate(-771.707 -112.25)"/><path class="a" d="M906.757,147.393a1.256,1.256,0,0,1-1.256-1.256v-2.68a1.256,1.256,0,1,1,2.513,0v2.68a1.256,1.256,0,0,1-1.256,1.256Z" transform="translate(-753.808 -131.814)"/><path class="a" d="M906.757,85.728a1.256,1.256,0,0,1-1.256-1.256V81.456a1.256,1.256,0,1,1,2.513,0v3.015A1.256,1.256,0,0,1,906.757,85.728Z" transform="translate(-753.808 -80.2)"/><path class="a" d="M114.312,772.215a4.072,4.072,0,1,1,4.072-4.072A4.072,4.072,0,0,1,114.312,772.215Zm0-5.632a1.56,1.56,0,1,0,1.56,1.56A1.56,1.56,0,0,0,114.312,766.583Z" transform="translate(-91.772 -649.506)"/><path class="a" d="M914.263,301.855a4.072,4.072,0,1,1,4.072-4.076A4.073,4.073,0,0,1,914.263,301.855Zm0-5.632a1.56,1.56,0,1,0,1.559,1.56A1.56,1.56,0,0,0,914.263,296.223Z" transform="translate(-757.712 -257.942)"/></g><g class="b" transform="translate(3.767)"><path class="a" d="M726.7,67.231a1.252,1.252,0,0,1-.739-.241,77.5,77.5,0,0,0-7.538-4.845,1.258,1.258,0,1,1,1.241-2.19,80.185,80.185,0,0,1,7.78,5,1.256,1.256,0,0,1-.744,2.273Z" transform="translate(-601.304 -49.778)"/><path class="a" d="M351.586,6.048a1.256,1.256,0,0,1-.372-2.456,79.972,79.972,0,0,1,42.253-1.374,1.257,1.257,0,1,1-.586,2.444A77.458,77.458,0,0,0,351.96,5.991a1.256,1.256,0,0,1-.374.057Z" transform="translate(-295.41 -0.02)"/><path class="a" d="M170.015,113.058a1.256,1.256,0,0,1-.864-2.178c1.245-1.173,2.541-2.322,3.853-3.411a1.256,1.256,0,1,1,1.6,1.933c-1.273,1.055-2.53,2.168-3.734,3.305A1.256,1.256,0,0,1,170.015,113.058Z" transform="translate(-144.246 -89.228)"/><path class="a" d="M24.362,287.746a1.256,1.256,0,0,1-1.245-1.1,80.568,80.568,0,0,1,0-20.15,78.6,78.6,0,0,1,9.653-29.079,1.257,1.257,0,0,1,2.186,1.243,76.1,76.1,0,0,0-9.351,28.144,78.079,78.079,0,0,0,0,19.518,1.255,1.255,0,0,1-1.087,1.405A1.3,1.3,0,0,1,24.362,287.746Z" transform="translate(-22.485 -197.12)"/><path class="a" d="M214.253,844.675a1.251,1.251,0,0,1-.627-.168,79.9,79.9,0,0,1-8.8-5.9,1.257,1.257,0,1,1,1.534-1.99,77.471,77.471,0,0,0,8.52,5.709,1.257,1.257,0,0,1-.63,2.346Z" transform="translate(-173.874 -696.253)"/><path class="a" d="M388.094,922.14a79.644,79.644,0,0,1-20.87-2.773,1.256,1.256,0,1,1,.658-2.424,77.572,77.572,0,0,0,36.669.921,1.256,1.256,0,0,1,.533,2.454A79.951,79.951,0,0,1,388.094,922.14Z" transform="translate(-308.672 -763.294)"/><path class="a" d="M719.117,858.658a1.256,1.256,0,0,1-.616-2.345c1.878-1.059,3.736-2.211,5.518-3.426a1.256,1.256,0,1,1,1.414,2.077c-1.843,1.255-3.759,2.444-5.7,3.538A1.257,1.257,0,0,1,719.117,858.658Z" transform="translate(-601.378 -709.831)"/><path class="a" d="M836.529,613.3a1.255,1.255,0,0,1-.932-2.1,76.974,76.974,0,0,0,17.689-33.4,1.257,1.257,0,0,1,2.443.591,79.509,79.509,0,0,1-18.268,34.491A1.251,1.251,0,0,1,836.529,613.3Z" transform="translate(-699.111 -480.212)"/><path class="a" d="M951.8,405.71a1.256,1.256,0,0,1-1.256-1.256c0-2.315-.1-4.65-.31-6.941-.168-1.878-.407-3.768-.71-5.619a1.256,1.256,0,1,1,2.479-.407c.313,1.911.561,3.863.734,5.8.213,2.365.32,4.776.32,7.165a1.256,1.256,0,0,1-1.256,1.256Z" transform="translate(-794.212 -325.031)"/></g></g></g></svg>