<svg xmlns="http://www.w3.org/2000/svg" width="366.617" height="366.617" viewBox="0 0 366.617 366.617"><defs><style>.a{fill:#522d94;opacity:0.102;}</style></defs><g transform="translate(-1273.691 -1416.691)"><path class="a" d="M1278.766,1753.252l331.487-331.487a17.326,17.326,0,0,1,24.5,0l.48.481a17.325,17.325,0,0,1,0,24.5l-331.487,331.487a17.325,17.325,0,0,1-24.5,0l-.48-.48A17.324,17.324,0,0,1,1278.766,1753.252Z"/><path class="a" d="M1362.766,1745.252l242.487-244.487a17.325,17.325,0,0,1,24.5,0l.48.48a17.325,17.325,0,0,1,0,24.5l-242.487,244.486a17.324,17.324,0,0,1-24.5,0l-.48-.481A17.324,17.324,0,0,1,1362.766,1745.252Z"/></g></svg>