<svg xmlns="http://www.w3.org/2000/svg" width="67" height="67" viewBox="0 0 67 67"><defs><style>.a{fill:#522d94;}.b{fill:#fff;}</style></defs><g transform="translate(0.06 0.06)"><circle class="a" cx="33.5" cy="33.5" r="33.5" transform="translate(-0.06 -0.06)"/><path class="b" d="M27.614,2.656a11.364,11.364,0,0,1-3.254.893A5.682,5.682,0,0,0,26.851.415a11.322,11.322,0,0,1-3.6,1.374,5.668,5.668,0,0,0-9.8,3.875A5.728,5.728,0,0,0,13.6,6.956,16.082,16.082,0,0,1,1.923,1.037,5.67,5.67,0,0,0,3.676,8.6,5.618,5.618,0,0,1,1.111,7.89v.072a5.666,5.666,0,0,0,4.544,5.553,5.656,5.656,0,0,1-1.493.2,5.573,5.573,0,0,1-1.066-.1,5.674,5.674,0,0,0,5.293,3.935A11.382,11.382,0,0,1,1.352,19.97,11.419,11.419,0,0,1,0,19.891a16.032,16.032,0,0,0,8.685,2.545C19.1,22.437,24.8,13.806,24.8,6.321c0-.247-.006-.489-.016-.732a11.515,11.515,0,0,0,2.827-2.931v0Z" transform="translate(19.507 22.356)"/></g></svg>